<svg xmlns="http://www.w3.org/2000/svg" xmlns:xlink="http://www.w3.org/1999/xlink" width="2000" zoomAndPan="magnify" viewBox="0 0 1500 1499.999933" height="2000" preserveAspectRatio="xMidYMid meet" version="1.0"><defs><clipPath id="1ff28622da"><path d="M 527.335938 531 L 972.832031 531 L 972.832031 969 L 527.335938 969 Z M 527.335938 531 " clip-rule="nonzero"/></clipPath></defs><g clip-path="url(#1ff28622da)"><path fill="#ffffff" d="M 891.03125 808.164062 L 891.140625 808.164062 C 892.644531 808.171875 894.144531 808.101562 895.644531 807.964844 C 897.140625 807.824219 898.628906 807.609375 900.105469 807.324219 C 901.582031 807.039062 903.039062 806.683594 904.480469 806.257812 C 905.921875 805.832031 907.339844 805.335938 908.734375 804.769531 C 910.128906 804.207031 911.492188 803.574219 912.824219 802.878906 C 914.15625 802.179688 915.453125 801.421875 916.710938 800.597656 C 917.96875 799.773438 919.183594 798.890625 920.355469 797.949219 C 921.527344 797.007812 922.652344 796.011719 923.726562 794.960938 C 924.804688 793.910156 925.824219 792.808594 926.792969 791.65625 C 927.761719 790.507812 928.671875 789.3125 929.523438 788.074219 C 930.375 786.835938 931.167969 785.558594 931.894531 784.242188 C 932.621094 782.925781 933.285156 781.578125 933.882812 780.195312 C 934.476562 778.816406 935.003906 777.410156 935.464844 775.976562 C 935.925781 774.546875 936.316406 773.097656 936.632812 771.625 C 936.953125 770.15625 937.199219 768.675781 937.375 767.179688 C 937.546875 765.6875 937.648438 764.1875 937.679688 762.6875 C 937.730469 759.691406 937.484375 756.722656 936.9375 753.777344 C 936.394531 750.832031 935.5625 747.972656 934.445312 745.195312 C 933.324219 742.417969 931.941406 739.777344 930.292969 737.277344 C 928.644531 734.777344 926.765625 732.464844 924.652344 730.34375 C 922.503906 728.113281 920.15625 726.117188 917.609375 724.355469 C 915.066406 722.59375 912.371094 721.097656 909.53125 719.867188 C 906.6875 718.640625 903.75 717.703125 900.722656 717.058594 C 897.695312 716.414062 894.632812 716.074219 891.535156 716.039062 L 891.480469 716.039062 C 889.203125 716.003906 886.933594 716.140625 884.675781 716.445312 C 882.417969 716.746094 880.195312 717.214844 878.007812 717.847656 C 875.820312 718.484375 873.691406 719.273438 871.617188 720.222656 C 869.546875 721.171875 867.558594 722.269531 865.648438 723.511719 C 863.742188 724.753906 861.933594 726.132812 860.230469 727.644531 C 858.527344 729.15625 856.941406 730.785156 855.480469 732.53125 C 854.015625 734.28125 852.691406 736.125 851.503906 738.066406 C 850.3125 740.011719 849.273438 742.03125 848.382812 744.128906 C 847.496094 746.226562 846.765625 748.375 846.191406 750.582031 C 845.621094 752.789062 845.21875 755.023438 844.976562 757.289062 C 844.738281 759.554688 844.667969 761.824219 844.765625 764.101562 C 844.863281 766.375 845.128906 768.632812 845.558594 770.871094 C 845.992188 773.105469 846.585938 775.300781 847.34375 777.449219 C 848.101562 779.597656 849.011719 781.679688 850.078125 783.691406 C 851.140625 785.703125 852.351562 787.628906 853.703125 789.464844 C 855.050781 791.296875 856.53125 793.023438 858.136719 794.636719 C 860.300781 796.789062 862.652344 798.710938 865.191406 800.402344 C 867.734375 802.089844 870.414062 803.515625 873.238281 804.675781 C 876.058594 805.835938 878.96875 806.710938 881.960938 807.296875 C 884.957031 807.882812 887.980469 808.171875 891.03125 808.164062 Z M 867.761719 739.917969 C 869.273438 738.371094 870.925781 736.992188 872.710938 735.773438 C 874.5 734.554688 876.390625 733.527344 878.382812 732.683594 C 880.375 731.84375 882.433594 731.207031 884.550781 730.777344 C 886.671875 730.34375 888.8125 730.125 890.972656 730.121094 L 891.140625 730.121094 C 893.300781 730.113281 895.4375 730.316406 897.550781 730.734375 C 899.667969 731.152344 901.722656 731.773438 903.71875 732.601562 C 905.710938 733.425781 907.601562 734.441406 909.390625 735.644531 C 911.183594 736.851562 912.835938 738.21875 914.355469 739.75 C 915.839844 741.199219 917.167969 742.78125 918.335938 744.496094 C 919.507812 746.210938 920.496094 748.023438 921.304688 749.9375 C 922.113281 751.847656 922.722656 753.820312 923.136719 755.855469 C 923.550781 757.886719 923.757812 759.941406 923.761719 762.019531 C 923.75 763.066406 923.683594 764.109375 923.570312 765.152344 C 923.457031 766.195312 923.292969 767.230469 923.078125 768.253906 C 922.863281 769.28125 922.601562 770.292969 922.289062 771.292969 C 921.972656 772.292969 921.613281 773.277344 921.207031 774.242188 C 920.796875 775.207031 920.34375 776.152344 919.84375 777.074219 C 919.34375 777.996094 918.800781 778.890625 918.214844 779.757812 C 917.628906 780.625 917 781.464844 916.332031 782.273438 C 915.664062 783.082031 914.957031 783.855469 914.214844 784.59375 C 913.472656 785.332031 912.695312 786.035156 911.882812 786.699219 C 911.074219 787.363281 910.230469 787.984375 909.359375 788.566406 C 908.488281 789.148438 907.589844 789.6875 906.667969 790.183594 C 905.742188 790.679688 904.796875 791.128906 903.832031 791.53125 C 902.863281 791.933594 901.878906 792.289062 900.875 792.597656 C 899.875 792.90625 898.859375 793.164062 897.832031 793.375 C 896.804688 793.582031 895.769531 793.742188 894.726562 793.851562 C 893.6875 793.960938 892.640625 794.019531 891.59375 794.027344 C 889.453125 794.027344 887.332031 793.828125 885.230469 793.425781 C 883.128906 793.023438 881.085938 792.425781 879.097656 791.636719 C 877.109375 790.84375 875.214844 789.871094 873.414062 788.71875 C 871.609375 787.570312 869.933594 786.257812 868.378906 784.785156 C 867.617188 784.070312 866.894531 783.320312 866.207031 782.535156 C 865.519531 781.746094 864.875 780.925781 864.269531 780.074219 C 863.664062 779.222656 863.105469 778.34375 862.589844 777.433594 C 862.074219 776.527344 861.605469 775.59375 861.183594 774.636719 C 860.757812 773.683594 860.386719 772.707031 860.0625 771.714844 C 859.738281 770.722656 859.464844 769.714844 859.242188 768.695312 C 859.019531 767.675781 858.847656 766.644531 858.730469 765.605469 C 858.609375 764.570312 858.542969 763.527344 858.53125 762.484375 C 858.515625 761.4375 858.554688 760.394531 858.644531 759.355469 C 858.734375 758.316406 858.875 757.28125 859.070312 756.253906 C 859.265625 755.226562 859.511719 754.214844 859.808594 753.210938 C 860.105469 752.210938 860.449219 751.226562 860.847656 750.261719 C 861.242188 749.292969 861.683594 748.347656 862.175781 747.425781 C 862.667969 746.503906 863.203125 745.609375 863.78125 744.742188 C 864.363281 743.871094 864.984375 743.035156 865.652344 742.230469 C 866.316406 741.421875 867.019531 740.652344 867.761719 739.917969 Z M 686.804688 882.289062 C 686.082031 880.410156 685.296875 878.558594 684.441406 876.738281 C 683.589844 874.914062 682.671875 873.125 681.6875 871.371094 C 680.707031 869.613281 679.660156 867.894531 678.554688 866.214844 C 677.449219 864.53125 676.285156 862.894531 675.058594 861.296875 C 673.835938 859.699219 672.554688 858.148438 671.21875 856.640625 C 669.886719 855.136719 668.496094 853.683594 667.054688 852.277344 C 665.617188 850.871094 664.128906 849.519531 662.589844 848.222656 C 661.050781 846.921875 659.46875 845.683594 657.84375 844.496094 C 656.214844 843.3125 654.546875 842.1875 652.839844 841.125 C 651.132812 840.0625 649.390625 839.058594 647.609375 838.121094 C 645.828125 837.179688 644.019531 836.308594 642.175781 835.5 C 640.332031 834.691406 638.460938 833.949219 636.566406 833.273438 C 634.671875 832.601562 632.753906 831.996094 630.8125 831.460938 C 628.875 830.921875 626.917969 830.457031 624.945312 830.0625 C 622.972656 829.667969 620.984375 829.34375 618.988281 829.089844 C 616.992188 828.839844 614.992188 828.65625 612.980469 828.550781 C 610.804688 828.464844 608.632812 828.460938 606.457031 828.542969 C 604.28125 828.625 602.113281 828.792969 599.953125 829.042969 C 597.789062 829.296875 595.640625 829.628906 593.507812 830.046875 C 591.371094 830.464844 589.253906 830.964844 587.15625 831.546875 C 585.0625 832.128906 582.988281 832.792969 580.945312 833.535156 C 578.898438 834.277344 576.886719 835.101562 574.902344 836 C 572.921875 836.898438 570.976562 837.875 569.074219 838.925781 C 567.167969 839.976562 565.304688 841.097656 563.484375 842.292969 C 561.667969 843.488281 559.898438 844.753906 558.175781 846.085938 C 556.457031 847.417969 554.789062 848.816406 553.179688 850.277344 C 551.566406 851.738281 550.011719 853.261719 548.519531 854.84375 C 547.027344 856.425781 545.597656 858.066406 544.230469 859.757812 C 542.863281 861.453125 541.5625 863.195312 540.332031 864.992188 C 539.101562 866.785156 537.941406 868.625 536.855469 870.507812 C 535.765625 872.394531 534.753906 874.316406 533.8125 876.28125 C 532.875 878.246094 532.015625 880.242188 531.230469 882.273438 L 527.335938 892.140625 L 690.644531 892.140625 Z M 549.425781 877.683594 C 550.910156 875.058594 552.5625 872.539062 554.378906 870.132812 C 556.195312 867.722656 558.164062 865.445312 560.28125 863.296875 C 562.402344 861.148438 564.652344 859.148438 567.035156 857.296875 C 569.417969 855.445312 571.910156 853.761719 574.515625 852.242188 C 577.125 850.71875 579.816406 849.378906 582.601562 848.210938 C 585.382812 847.046875 588.234375 846.074219 591.144531 845.285156 C 594.058594 844.496094 597.007812 843.90625 600 843.507812 C 602.992188 843.109375 605.996094 842.910156 609.011719 842.910156 C 612.027344 842.910156 615.03125 843.109375 618.023438 843.507812 C 621.015625 843.90625 623.964844 844.496094 626.878906 845.285156 C 629.792969 846.074219 632.640625 847.046875 635.421875 848.210938 C 638.207031 849.378906 640.902344 850.71875 643.507812 852.242188 C 646.113281 853.761719 648.605469 855.445312 650.988281 857.296875 C 653.371094 859.148438 655.625 861.148438 657.742188 863.296875 C 659.859375 865.445312 661.828125 867.722656 663.644531 870.132812 C 665.460938 872.539062 667.113281 875.058594 668.597656 877.683594 Z M 754.277344 904.855469 C 752.101562 904.769531 749.925781 904.765625 747.75 904.847656 C 745.574219 904.929688 743.40625 905.097656 741.246094 905.347656 C 739.082031 905.597656 736.933594 905.929688 734.796875 906.347656 C 732.660156 906.765625 730.542969 907.265625 728.445312 907.847656 C 726.347656 908.429688 724.277344 909.089844 722.230469 909.835938 C 720.183594 910.578125 718.167969 911.398438 716.1875 912.296875 C 714.203125 913.199219 712.261719 914.171875 710.355469 915.222656 C 708.449219 916.273438 706.585938 917.394531 704.765625 918.589844 C 702.945312 919.785156 701.175781 921.050781 699.453125 922.382812 C 697.734375 923.714844 696.066406 925.113281 694.453125 926.574219 C 692.839844 928.039062 691.289062 929.558594 689.792969 931.144531 C 688.300781 932.726562 686.867188 934.363281 685.5 936.058594 C 684.132812 937.753906 682.835938 939.496094 681.605469 941.292969 C 680.371094 943.085938 679.210938 944.925781 678.125 946.8125 C 677.035156 948.699219 676.023438 950.621094 675.082031 952.585938 C 674.144531 954.550781 673.28125 956.546875 672.5 958.578125 L 668.601562 968.449219 L 831.90625 968.449219 L 828.066406 958.59375 C 827.347656 956.714844 826.558594 954.867188 825.707031 953.042969 C 824.851562 951.222656 823.933594 949.433594 822.953125 947.675781 C 821.96875 945.917969 820.925781 944.203125 819.820312 942.519531 C 818.714844 940.839844 817.546875 939.199219 816.324219 937.601562 C 815.101562 936.003906 813.820312 934.453125 812.484375 932.949219 C 811.148438 931.445312 809.761719 929.988281 808.320312 928.582031 C 806.882812 927.179688 805.390625 925.828125 803.855469 924.527344 C 802.316406 923.230469 800.734375 921.988281 799.109375 920.804688 C 797.480469 919.621094 795.8125 918.496094 794.105469 917.433594 C 792.398438 916.367188 790.65625 915.367188 788.875 914.425781 C 787.09375 913.488281 785.285156 912.613281 783.441406 911.804688 C 781.597656 910.996094 779.730469 910.253906 777.832031 909.582031 C 775.9375 908.90625 774.019531 908.300781 772.082031 907.765625 C 770.140625 907.230469 768.183594 906.765625 766.210938 906.367188 C 764.238281 905.972656 762.253906 905.648438 760.257812 905.398438 C 758.261719 905.144531 756.257812 904.964844 754.25 904.855469 Z M 690.695312 954.007812 C 692.179688 951.382812 693.828125 948.863281 695.648438 946.453125 C 697.464844 944.046875 699.429688 941.769531 701.550781 939.621094 C 703.667969 937.472656 705.917969 935.472656 708.300781 933.621094 C 710.683594 931.769531 713.179688 930.082031 715.785156 928.5625 C 718.390625 927.042969 721.082031 925.699219 723.867188 924.535156 C 726.648438 923.371094 729.5 922.394531 732.410156 921.605469 C 735.324219 920.820312 738.273438 920.226562 741.265625 919.828125 C 744.257812 919.433594 747.261719 919.234375 750.277344 919.234375 C 753.292969 919.234375 756.296875 919.433594 759.289062 919.828125 C 762.28125 920.226562 765.230469 920.820312 768.144531 921.605469 C 771.054688 922.394531 773.902344 923.371094 776.6875 924.535156 C 779.46875 925.699219 782.164062 927.042969 784.769531 928.5625 C 787.375 930.082031 789.871094 931.769531 792.253906 933.621094 C 794.636719 935.472656 796.886719 937.472656 799.003906 939.621094 C 801.125 941.769531 803.089844 944.046875 804.90625 946.453125 C 806.722656 948.863281 808.375 951.382812 809.859375 954.007812 Z M 703.792969 840.261719 C 703.765625 843.304688 704.042969 846.324219 704.613281 849.316406 C 705.1875 852.304688 706.050781 855.210938 707.203125 858.03125 C 708.355469 860.847656 709.773438 863.527344 711.457031 866.0625 C 713.140625 868.601562 715.058594 870.949219 717.210938 873.105469 C 719.371094 875.257812 721.722656 877.179688 724.265625 878.867188 C 726.808594 880.554688 729.488281 881.980469 732.3125 883.140625 C 735.132812 884.300781 738.042969 885.175781 741.039062 885.761719 C 744.03125 886.351562 747.054688 886.640625 750.109375 886.628906 L 750.21875 886.628906 C 751.722656 886.636719 753.222656 886.570312 754.71875 886.429688 C 756.21875 886.289062 757.703125 886.074219 759.179688 885.789062 C 760.65625 885.507812 762.117188 885.148438 763.558594 884.722656 C 765 884.296875 766.417969 883.800781 767.8125 883.234375 C 769.203125 882.671875 770.566406 882.039062 771.898438 881.34375 C 773.230469 880.644531 774.527344 879.882812 775.785156 879.0625 C 777.042969 878.238281 778.257812 877.355469 779.433594 876.414062 C 780.605469 875.472656 781.726562 874.476562 782.804688 873.425781 C 783.878906 872.375 784.902344 871.273438 785.867188 870.121094 C 786.835938 868.972656 787.746094 867.777344 788.601562 866.539062 C 789.453125 865.300781 790.242188 864.023438 790.96875 862.707031 C 791.699219 861.390625 792.359375 860.042969 792.957031 858.660156 C 793.554688 857.28125 794.082031 855.875 794.542969 854.445312 C 795 853.011719 795.390625 851.5625 795.710938 850.09375 C 796.027344 848.621094 796.273438 847.140625 796.449219 845.648438 C 796.625 844.152344 796.726562 842.65625 796.753906 841.152344 C 796.804688 838.15625 796.558594 835.1875 796.011719 832.246094 C 795.46875 829.300781 794.636719 826.4375 793.519531 823.660156 C 792.398438 820.882812 791.015625 818.246094 789.367188 815.746094 C 787.71875 813.246094 785.839844 810.933594 783.730469 808.808594 C 781.582031 806.582031 779.234375 804.585938 776.6875 802.820312 C 774.140625 801.058594 771.445312 799.5625 768.605469 798.335938 C 765.761719 797.105469 762.824219 796.171875 759.796875 795.523438 C 756.769531 794.878906 753.703125 794.539062 750.609375 794.503906 L 750.554688 794.503906 C 749.035156 794.476562 747.519531 794.523438 746.003906 794.644531 C 744.492188 794.765625 742.988281 794.964844 741.496094 795.234375 C 740 795.507812 738.523438 795.851562 737.0625 796.269531 C 735.605469 796.6875 734.167969 797.175781 732.757812 797.738281 C 731.347656 798.296875 729.96875 798.925781 728.617188 799.625 C 727.269531 800.320312 725.957031 801.082031 724.683594 801.910156 C 723.414062 802.738281 722.183594 803.625 721 804.574219 C 719.8125 805.523438 718.679688 806.53125 717.59375 807.59375 C 716.507812 808.65625 715.476562 809.769531 714.503906 810.933594 C 713.527344 812.097656 712.613281 813.304688 711.757812 814.558594 C 710.902344 815.816406 710.113281 817.109375 709.386719 818.441406 C 708.660156 819.777344 708.003906 821.140625 707.410156 822.539062 C 706.820312 823.9375 706.300781 825.363281 705.851562 826.8125 C 705.402344 828.265625 705.023438 829.734375 704.722656 831.222656 C 704.417969 832.707031 704.1875 834.207031 704.035156 835.71875 C 703.878906 837.230469 703.796875 838.742188 703.792969 840.261719 Z M 726.839844 818.382812 C 728.351562 816.839844 730 815.457031 731.789062 814.238281 C 733.578125 813.019531 735.46875 811.992188 737.460938 811.148438 C 739.453125 810.308594 741.507812 809.671875 743.628906 809.242188 C 745.746094 808.808594 747.890625 808.59375 750.050781 808.585938 L 750.21875 808.585938 C 752.375 808.578125 754.511719 808.785156 756.628906 809.203125 C 758.746094 809.621094 760.800781 810.242188 762.792969 811.066406 C 764.785156 811.894531 766.679688 812.910156 768.46875 814.113281 C 770.257812 815.316406 771.914062 816.683594 773.429688 818.21875 C 774.917969 819.667969 776.246094 821.25 777.414062 822.960938 C 778.585938 824.675781 779.574219 826.488281 780.382812 828.402344 C 781.1875 830.3125 781.800781 832.285156 782.214844 834.320312 C 782.625 836.355469 782.835938 838.410156 782.839844 840.484375 C 782.824219 841.53125 782.761719 842.578125 782.648438 843.617188 C 782.535156 844.660156 782.367188 845.695312 782.15625 846.722656 C 781.941406 847.746094 781.675781 848.761719 781.363281 849.761719 C 781.050781 850.761719 780.6875 851.742188 780.28125 852.710938 C 779.871094 853.675781 779.417969 854.617188 778.917969 855.539062 C 778.417969 856.460938 777.875 857.355469 777.289062 858.226562 C 776.703125 859.09375 776.074219 859.929688 775.40625 860.738281 C 774.738281 861.546875 774.03125 862.320312 773.289062 863.058594 C 772.546875 863.800781 771.769531 864.5 770.957031 865.164062 C 770.148438 865.828125 769.304688 866.453125 768.433594 867.035156 C 767.5625 867.617188 766.664062 868.15625 765.738281 868.648438 C 764.816406 869.144531 763.871094 869.59375 762.902344 869.996094 C 761.933594 870.402344 760.949219 870.757812 759.949219 871.0625 C 758.945312 871.371094 757.933594 871.628906 756.90625 871.839844 C 755.878906 872.050781 754.84375 872.207031 753.800781 872.316406 C 752.757812 872.425781 751.710938 872.484375 750.664062 872.492188 C 748.523438 872.492188 746.40625 872.292969 744.304688 871.890625 C 742.203125 871.488281 740.15625 870.890625 738.171875 870.101562 C 736.183594 869.308594 734.289062 868.339844 732.484375 867.1875 C 730.683594 866.035156 729.003906 864.722656 727.453125 863.25 C 726.6875 862.535156 725.964844 861.785156 725.277344 861 C 724.589844 860.210938 723.945312 859.394531 723.339844 858.539062 C 722.734375 857.6875 722.175781 856.808594 721.660156 855.898438 C 721.144531 854.992188 720.675781 854.058594 720.253906 853.105469 C 719.832031 852.148438 719.457031 851.171875 719.132812 850.179688 C 718.808594 849.1875 718.535156 848.179688 718.3125 847.160156 C 718.089844 846.140625 717.921875 845.109375 717.800781 844.070312 C 717.683594 843.035156 717.617188 841.992188 717.601562 840.949219 C 717.585938 839.902344 717.625 838.859375 717.714844 837.820312 C 717.804688 836.78125 717.949219 835.746094 718.144531 834.71875 C 718.339844 833.691406 718.585938 832.679688 718.882812 831.675781 C 719.179688 830.675781 719.523438 829.691406 719.921875 828.726562 C 720.316406 827.757812 720.757812 826.8125 721.25 825.890625 C 721.742188 824.96875 722.277344 824.074219 722.859375 823.207031 C 723.4375 822.335938 724.0625 821.5 724.726562 820.695312 C 725.390625 819.890625 726.097656 819.121094 726.839844 818.382812 Z M 813.421875 880.125 L 809.558594 889.992188 L 972.859375 889.992188 L 969.019531 880.140625 C 968.277344 878.175781 967.464844 876.246094 966.582031 874.34375 C 965.695312 872.441406 964.738281 870.574219 963.710938 868.746094 C 962.683594 866.917969 961.589844 865.128906 960.429688 863.382812 C 959.265625 861.636719 958.039062 859.9375 956.75 858.28125 C 955.457031 856.628906 954.105469 855.027344 952.695312 853.476562 C 951.28125 851.925781 949.8125 850.429688 948.289062 848.988281 C 946.765625 847.546875 945.1875 846.167969 943.554688 844.847656 C 941.925781 843.527344 940.25 842.269531 938.523438 841.074219 C 936.800781 839.882812 935.03125 838.753906 933.222656 837.695312 C 931.410156 836.636719 929.5625 835.644531 927.679688 834.726562 C 925.792969 833.804688 923.875 832.957031 921.925781 832.183594 C 919.976562 831.410156 918 830.707031 916 830.082031 C 913.996094 829.457031 911.972656 828.910156 909.929688 828.4375 C 907.882812 827.964844 905.824219 827.570312 903.753906 827.253906 C 901.679688 826.9375 899.59375 826.699219 897.503906 826.542969 C 895.410156 826.382812 893.316406 826.304688 891.21875 826.304688 C 889.121094 826.304688 887.027344 826.382812 884.933594 826.542969 C 882.84375 826.699219 880.761719 826.9375 878.6875 827.253906 C 876.613281 827.570312 874.554688 827.964844 872.511719 828.4375 C 870.464844 828.910156 868.445312 829.457031 866.441406 830.082031 C 864.4375 830.707031 862.460938 831.410156 860.511719 832.183594 C 858.5625 832.957031 856.648438 833.804688 854.761719 834.726562 C 852.875 835.644531 851.027344 836.636719 849.21875 837.695312 C 847.40625 838.753906 845.640625 839.882812 843.914062 841.074219 C 842.191406 842.269531 840.511719 843.527344 838.882812 844.847656 C 837.253906 846.167969 835.675781 847.546875 834.148438 848.988281 C 832.625 850.429688 831.15625 851.925781 829.742188 853.476562 C 828.332031 855.027344 826.980469 856.628906 825.691406 858.28125 C 824.398438 859.9375 823.171875 861.636719 822.011719 863.382812 C 820.847656 865.128906 819.753906 866.917969 818.726562 868.746094 C 817.699219 870.574219 816.742188 872.441406 815.859375 874.34375 C 814.972656 876.246094 814.160156 878.175781 813.421875 880.140625 Z M 950.816406 875.519531 L 831.644531 875.519531 C 833.128906 872.894531 834.78125 870.375 836.597656 867.96875 C 838.414062 865.558594 840.382812 863.28125 842.503906 861.132812 C 844.621094 858.984375 846.871094 856.984375 849.253906 855.136719 C 851.636719 853.285156 854.132812 851.601562 856.738281 850.078125 C 859.34375 848.558594 862.039062 847.214844 864.820312 846.050781 C 867.605469 844.886719 870.453125 843.914062 873.363281 843.125 C 876.277344 842.335938 879.226562 841.746094 882.21875 841.347656 C 885.210938 840.949219 888.214844 840.75 891.230469 840.75 C 894.246094 840.75 897.25 840.949219 900.242188 841.347656 C 903.234375 841.746094 906.183594 842.335938 909.097656 843.125 C 912.007812 843.914062 914.855469 844.886719 917.640625 846.050781 C 920.421875 847.214844 923.117188 848.558594 925.722656 850.078125 C 928.328125 851.601562 930.824219 853.285156 933.207031 855.136719 C 935.589844 856.984375 937.839844 858.984375 939.960938 861.132812 C 942.078125 863.28125 944.046875 865.558594 945.863281 867.96875 C 947.679688 870.375 949.332031 872.894531 950.816406 875.519531 Z M 608.816406 810.324219 L 608.929688 810.324219 C 610.433594 810.328125 611.933594 810.261719 613.429688 810.121094 C 614.925781 809.980469 616.414062 809.769531 617.890625 809.484375 C 619.367188 809.199219 620.824219 808.84375 622.269531 808.417969 C 623.710938 807.988281 625.128906 807.496094 626.519531 806.929688 C 627.914062 806.363281 629.277344 805.734375 630.609375 805.035156 C 631.941406 804.339844 633.238281 803.578125 634.496094 802.753906 C 635.753906 801.929688 636.96875 801.046875 638.140625 800.105469 C 639.3125 799.164062 640.4375 798.167969 641.511719 797.117188 C 642.589844 796.066406 643.609375 794.964844 644.578125 793.816406 C 645.546875 792.664062 646.457031 791.472656 647.308594 790.230469 C 648.160156 788.992188 648.953125 787.714844 649.679688 786.398438 C 650.40625 785.082031 651.070312 783.734375 651.667969 782.355469 C 652.261719 780.976562 652.792969 779.570312 653.25 778.136719 C 653.710938 776.707031 654.101562 775.253906 654.417969 773.785156 C 654.738281 772.316406 654.984375 770.835938 655.160156 769.339844 C 655.335938 767.847656 655.4375 766.347656 655.464844 764.84375 C 655.515625 761.851562 655.269531 758.882812 654.722656 755.9375 C 654.179688 752.992188 653.347656 750.132812 652.226562 747.355469 C 651.109375 744.578125 649.726562 741.9375 648.078125 739.4375 C 646.429688 736.9375 644.550781 734.628906 642.4375 732.503906 C 640.289062 730.273438 637.941406 728.277344 635.398438 726.515625 C 632.851562 724.75 630.15625 723.253906 627.3125 722.027344 C 624.472656 720.800781 621.535156 719.863281 618.507812 719.21875 C 615.476562 718.574219 612.414062 718.234375 609.316406 718.199219 L 609.261719 718.199219 C 606.984375 718.164062 604.714844 718.300781 602.457031 718.605469 C 600.199219 718.90625 597.976562 719.375 595.789062 720.007812 C 593.601562 720.640625 591.472656 721.433594 589.402344 722.382812 C 587.328125 723.332031 585.339844 724.429688 583.429688 725.671875 C 581.523438 726.914062 579.714844 728.292969 578.011719 729.804688 C 576.308594 731.316406 574.722656 732.945312 573.261719 734.691406 C 571.796875 736.4375 570.472656 738.285156 569.285156 740.226562 C 568.09375 742.171875 567.054688 744.191406 566.164062 746.289062 C 565.277344 748.386719 564.546875 750.535156 563.976562 752.742188 C 563.402344 754.945312 563 757.183594 562.757812 759.449219 C 562.519531 761.714844 562.449219 763.984375 562.546875 766.261719 C 562.644531 768.535156 562.910156 770.792969 563.339844 773.03125 C 563.773438 775.265625 564.367188 777.460938 565.125 779.609375 C 565.882812 781.757812 566.792969 783.835938 567.859375 785.851562 C 568.921875 787.863281 570.132812 789.789062 571.484375 791.625 C 572.832031 793.457031 574.3125 795.183594 575.917969 796.796875 C 578.082031 798.949219 580.433594 800.871094 582.976562 802.5625 C 585.515625 804.25 588.199219 805.675781 591.023438 806.835938 C 593.84375 807.996094 596.753906 808.871094 599.746094 809.457031 C 602.742188 810.042969 605.765625 810.332031 608.816406 810.324219 Z M 585.550781 742.078125 C 587.0625 740.53125 588.710938 739.148438 590.5 737.933594 C 592.285156 736.714844 594.175781 735.683594 596.167969 734.84375 C 598.164062 734.003906 600.21875 733.367188 602.335938 732.933594 C 604.457031 732.503906 606.597656 732.285156 608.761719 732.28125 L 608.929688 732.28125 C 611.085938 732.273438 613.222656 732.476562 615.339844 732.894531 C 617.457031 733.3125 619.511719 733.933594 621.503906 734.761719 C 623.496094 735.589844 625.386719 736.605469 627.179688 737.808594 C 628.96875 739.011719 630.621094 740.378906 632.140625 741.910156 C 633.625 743.359375 634.953125 744.941406 636.125 746.65625 C 637.292969 748.371094 638.28125 750.183594 639.089844 752.09375 C 639.898438 754.007812 640.507812 755.980469 640.921875 758.015625 C 641.335938 760.046875 641.546875 762.101562 641.546875 764.175781 C 641.535156 765.226562 641.472656 766.269531 641.359375 767.3125 C 641.242188 768.355469 641.078125 769.390625 640.863281 770.414062 C 640.648438 771.441406 640.386719 772.453125 640.074219 773.453125 C 639.757812 774.453125 639.398438 775.4375 638.992188 776.402344 C 638.582031 777.367188 638.128906 778.3125 637.628906 779.234375 C 637.128906 780.15625 636.585938 781.050781 636 781.917969 C 635.410156 782.785156 634.785156 783.625 634.117188 784.433594 C 633.449219 785.242188 632.742188 786.015625 632 786.753906 C 631.257812 787.492188 630.480469 788.195312 629.667969 788.859375 C 628.855469 789.523438 628.015625 790.144531 627.144531 790.726562 C 626.273438 791.308594 625.375 791.847656 624.449219 792.34375 C 623.527344 792.839844 622.582031 793.289062 621.613281 793.691406 C 620.644531 794.09375 619.660156 794.449219 618.660156 794.757812 C 617.65625 795.066406 616.640625 795.324219 615.613281 795.535156 C 614.585938 795.742188 613.550781 795.902344 612.511719 796.011719 C 611.46875 796.121094 610.421875 796.179688 609.375 796.183594 C 607.234375 796.1875 605.113281 795.988281 603.011719 795.585938 C 600.910156 795.183594 598.867188 794.585938 596.878906 793.792969 C 594.890625 793.003906 592.996094 792.03125 591.195312 790.878906 C 589.390625 789.726562 587.714844 788.417969 586.160156 786.945312 C 585.398438 786.230469 584.675781 785.480469 583.988281 784.691406 C 583.300781 783.90625 582.65625 783.085938 582.050781 782.234375 C 581.445312 781.382812 580.886719 780.503906 580.371094 779.59375 C 579.855469 778.683594 579.382812 777.753906 578.960938 776.796875 C 578.539062 775.84375 578.167969 774.867188 577.84375 773.875 C 577.519531 772.882812 577.246094 771.875 577.023438 770.855469 C 576.800781 769.832031 576.628906 768.804688 576.511719 767.765625 C 576.390625 766.726562 576.324219 765.6875 576.3125 764.640625 C 576.296875 763.597656 576.335938 762.554688 576.425781 761.515625 C 576.515625 760.472656 576.660156 759.441406 576.855469 758.414062 C 577.046875 757.386719 577.292969 756.371094 577.589844 755.371094 C 577.886719 754.371094 578.234375 753.386719 578.628906 752.417969 C 579.027344 751.453125 579.46875 750.507812 579.960938 749.585938 C 580.449219 748.664062 580.988281 747.769531 581.566406 746.898438 C 582.148438 746.03125 582.773438 745.195312 583.4375 744.390625 C 584.101562 743.582031 584.804688 742.8125 585.550781 742.078125 Z M 707.421875 670.015625 C 711.308594 674.015625 714.328125 678.585938 716.472656 683.734375 C 720.300781 693.613281 722.210938 703.847656 722.207031 714.441406 C 722.164062 715.105469 722.195312 715.761719 722.296875 716.421875 C 722.398438 717.078125 722.566406 717.714844 722.804688 718.335938 C 723.042969 718.957031 723.347656 719.542969 723.710938 720.097656 C 724.078125 720.652344 724.5 721.164062 724.972656 721.625 C 725.449219 722.089844 725.96875 722.496094 726.535156 722.847656 C 727.097656 723.199219 727.691406 723.488281 728.320312 723.710938 C 728.945312 723.933594 729.585938 724.085938 730.246094 724.171875 C 730.90625 724.253906 731.566406 724.269531 732.226562 724.210938 L 767.636719 724.210938 C 768.300781 724.265625 768.960938 724.25 769.621094 724.164062 C 770.28125 724.078125 770.921875 723.925781 771.550781 723.703125 C 772.179688 723.480469 772.773438 723.195312 773.339844 722.847656 C 773.910156 722.5 774.433594 722.097656 774.914062 721.636719 C 775.394531 721.179688 775.824219 720.675781 776.199219 720.125 C 776.574219 719.574219 776.886719 718.992188 777.136719 718.375 C 777.386719 717.761719 777.570312 717.125 777.6875 716.46875 C 777.804688 715.816406 777.851562 715.15625 777.828125 714.492188 C 778.277344 707.554688 779.125 700.667969 780.367188 693.828125 C 781.078125 689.414062 782.441406 685.210938 784.457031 681.222656 C 786.472656 677.230469 789.042969 673.640625 792.175781 670.449219 C 792.890625 669.746094 793.589844 669.023438 794.269531 668.285156 C 794.949219 667.546875 795.609375 666.792969 796.253906 666.019531 C 796.894531 665.25 797.519531 664.460938 798.121094 663.660156 C 798.722656 662.855469 799.304688 662.039062 799.867188 661.207031 C 800.429688 660.375 800.972656 659.53125 801.492188 658.671875 C 802.011719 657.8125 802.511719 656.941406 802.988281 656.058594 C 803.464844 655.171875 803.917969 654.277344 804.351562 653.371094 C 804.78125 652.464844 805.191406 651.550781 805.578125 650.621094 C 805.960938 649.695312 806.324219 648.757812 806.664062 647.816406 C 807.003906 646.871094 807.320312 645.917969 807.609375 644.957031 C 807.902344 643.996094 808.171875 643.027344 808.414062 642.054688 C 808.65625 641.082031 808.875 640.101562 809.070312 639.117188 C 809.265625 638.128906 809.433594 637.140625 809.578125 636.148438 C 809.722656 635.15625 809.84375 634.15625 809.9375 633.160156 C 810.035156 632.160156 810.105469 631.15625 810.148438 630.15625 C 810.195312 629.152344 810.214844 628.148438 810.210938 627.144531 C 810.203125 626.140625 810.175781 625.136719 810.121094 624.132812 C 810.066406 623.132812 809.984375 622.132812 809.878906 621.132812 C 809.773438 620.136719 809.644531 619.140625 809.488281 618.148438 C 809.335938 617.15625 809.15625 616.167969 808.953125 615.183594 C 808.746094 614.203125 808.519531 613.226562 808.265625 612.253906 C 808.011719 611.28125 807.734375 610.316406 807.433594 609.359375 C 807.132812 608.402344 806.808594 607.453125 806.460938 606.511719 C 806.109375 605.570312 805.738281 604.636719 805.34375 603.714844 C 804.949219 602.789062 804.53125 601.878906 804.089844 600.976562 C 803.648438 600.074219 803.1875 599.183594 802.699219 598.304688 C 802.214844 597.425781 801.707031 596.558594 801.179688 595.707031 C 800.652344 594.851562 800.101562 594.011719 799.53125 593.1875 C 798.960938 592.359375 798.371094 591.546875 797.757812 590.75 C 797.148438 589.957031 796.515625 589.175781 795.867188 588.410156 C 795.21875 587.644531 794.546875 586.894531 793.859375 586.164062 C 793.171875 585.433594 792.46875 584.71875 791.746094 584.023438 C 790.113281 582.421875 788.390625 580.921875 786.582031 579.519531 C 784.777344 578.121094 782.894531 576.828125 780.933594 575.648438 C 778.976562 574.464844 776.957031 573.402344 774.875 572.457031 C 772.792969 571.511719 770.664062 570.6875 768.484375 569.988281 C 766.308594 569.292969 764.097656 568.722656 761.851562 568.28125 C 759.609375 567.839844 757.347656 567.53125 755.066406 567.351562 C 752.785156 567.175781 750.503906 567.128906 748.21875 567.21875 C 745.933594 567.304688 743.660156 567.527344 741.402344 567.878906 C 738.625 568.203125 735.890625 568.730469 733.191406 569.453125 C 730.496094 570.175781 727.863281 571.089844 725.296875 572.199219 C 722.734375 573.304688 720.261719 574.59375 717.882812 576.058594 C 715.507812 577.527344 713.25 579.15625 711.109375 580.953125 C 708.96875 582.75 706.96875 584.6875 705.113281 586.777344 C 703.253906 588.863281 701.558594 591.074219 700.023438 593.40625 C 698.488281 595.738281 697.128906 598.171875 695.949219 600.703125 C 694.765625 603.234375 693.773438 605.839844 692.972656 608.515625 C 692.019531 611.136719 691.261719 613.816406 690.699219 616.546875 C 690.136719 619.28125 689.773438 622.039062 689.609375 624.824219 C 689.445312 627.609375 689.484375 630.390625 689.722656 633.171875 C 689.964844 635.953125 690.402344 638.699219 691.039062 641.414062 C 691.679688 644.132812 692.507812 646.789062 693.53125 649.382812 C 694.554688 651.980469 695.761719 654.488281 697.148438 656.910156 C 698.535156 659.328125 700.089844 661.636719 701.808594 663.832031 C 703.53125 666.03125 705.402344 668.089844 707.421875 670.015625 Z M 706.449219 611.152344 C 707.15625 609.058594 708.011719 607.023438 709.023438 605.058594 C 710.03125 603.089844 711.183594 601.207031 712.476562 599.414062 C 713.769531 597.617188 715.1875 595.929688 716.730469 594.347656 C 718.277344 592.765625 719.929688 591.304688 721.695312 589.96875 C 723.457031 588.636719 725.3125 587.4375 727.253906 586.382812 C 729.195312 585.324219 731.207031 584.417969 733.285156 583.664062 C 735.363281 582.90625 737.488281 582.308594 739.65625 581.871094 C 741.824219 581.433594 744.011719 581.160156 746.222656 581.050781 C 748.1875 580.867188 750.152344 580.8125 752.125 580.886719 C 754.097656 580.960938 756.054688 581.160156 758 581.488281 C 759.945312 581.8125 761.863281 582.265625 763.75 582.839844 C 765.636719 583.414062 767.480469 584.105469 769.277344 584.917969 C 771.074219 585.730469 772.8125 586.65625 774.492188 587.695312 C 776.167969 588.730469 777.773438 589.871094 779.304688 591.117188 C 780.835938 592.359375 782.277344 593.699219 783.636719 595.128906 C 784.992188 596.5625 786.253906 598.074219 787.414062 599.667969 C 788.617188 601.277344 789.710938 602.957031 790.695312 604.707031 C 791.683594 606.453125 792.550781 608.261719 793.300781 610.121094 C 794.054688 611.984375 794.683594 613.886719 795.1875 615.828125 C 795.691406 617.773438 796.070312 619.742188 796.320312 621.734375 C 796.574219 623.726562 796.695312 625.726562 796.6875 627.734375 C 796.675781 629.742188 796.539062 631.738281 796.273438 633.730469 C 796.007812 635.71875 795.613281 637.683594 795.089844 639.621094 C 794.570312 641.5625 793.925781 643.460938 793.160156 645.316406 C 791.160156 650.578125 788.167969 655.195312 784.1875 659.171875 C 781.996094 661.28125 779.976562 663.546875 778.136719 665.96875 C 776.296875 668.390625 774.652344 670.9375 773.203125 673.613281 C 771.753906 676.289062 770.523438 679.0625 769.503906 681.925781 C 768.484375 684.792969 767.691406 687.722656 767.125 690.710938 C 766.1875 695.035156 765.648438 699.472656 765.136719 703.757812 C 764.914062 705.585938 764.691406 707.421875 764.441406 709.214844 C 764.378906 709.632812 764.335938 710.042969 764.308594 710.460938 L 735.71875 710.382812 L 735.535156 708.371094 C 735.304688 705.746094 735.070312 703.101562 734.710938 700.480469 C 734.128906 694.136719 732.710938 687.984375 730.464844 682.023438 C 728.214844 676.0625 725.214844 670.507812 721.460938 665.359375 C 720.347656 663.953125 719.113281 662.636719 717.882812 661.324219 L 716.957031 660.339844 C 715.351562 658.796875 713.867188 657.140625 712.503906 655.375 C 711.144531 653.613281 709.921875 651.753906 708.835938 649.808594 C 707.753906 647.859375 706.816406 645.84375 706.035156 643.757812 C 705.25 641.671875 704.625 639.539062 704.160156 637.359375 C 703.695312 635.179688 703.394531 632.976562 703.253906 630.75 C 703.117188 628.527344 703.144531 626.304688 703.339844 624.082031 C 703.535156 621.863281 703.890625 619.667969 704.414062 617.503906 C 704.933594 615.335938 705.613281 613.21875 706.449219 611.152344 Z M 667.355469 584.992188 L 666.796875 583.414062 C 666.765625 582.707031 666.828125 582.007812 666.980469 581.316406 C 667.132812 580.625 667.375 579.96875 667.703125 579.339844 C 668.03125 578.714844 668.4375 578.140625 668.917969 577.621094 C 669.398438 577.101562 669.9375 576.65625 670.539062 576.277344 C 671.035156 575.988281 671.558594 575.769531 672.109375 575.617188 C 672.664062 575.464844 673.226562 575.386719 673.800781 575.382812 C 674.375 575.378906 674.9375 575.445312 675.492188 575.589844 C 676.046875 575.734375 676.574219 575.945312 677.074219 576.230469 C 682.140625 578.972656 687.09375 581.921875 691.375 584.4375 C 691.75 584.671875 692.097656 584.9375 692.421875 585.238281 C 692.746094 585.535156 693.039062 585.863281 693.300781 586.21875 C 693.5625 586.574219 693.789062 586.949219 693.976562 587.347656 C 694.167969 587.746094 694.316406 588.15625 694.425781 588.585938 C 694.539062 589.011719 694.609375 589.445312 694.636719 589.882812 C 694.664062 590.324219 694.652344 590.761719 694.59375 591.199219 C 694.539062 591.636719 694.445312 592.066406 694.304688 592.484375 C 694.167969 592.902344 693.992188 593.304688 693.78125 593.691406 C 693.335938 594.542969 692.75 595.273438 692.015625 595.890625 C 691.277344 596.507812 690.453125 596.957031 689.539062 597.242188 C 688.910156 597.421875 688.265625 597.515625 687.613281 597.515625 C 686.453125 597.523438 685.371094 597.230469 684.371094 596.648438 C 679.363281 593.917969 674.621094 591.179688 669.976562 588.296875 C 668.734375 587.492188 667.863281 586.390625 667.355469 585 Z M 742.894531 553.921875 C 742.859375 549.285156 742.894531 544.683594 742.894531 540.058594 L 742.894531 538.878906 C 742.878906 538.402344 742.910156 537.933594 742.988281 537.46875 C 743.066406 537 743.191406 536.546875 743.363281 536.105469 C 743.53125 535.664062 743.746094 535.242188 744 534.84375 C 744.253906 534.445312 744.542969 534.074219 744.875 533.734375 C 745.203125 533.394531 745.5625 533.089844 745.949219 532.820312 C 746.339844 532.550781 746.753906 532.324219 747.1875 532.140625 C 747.621094 531.953125 748.070312 531.8125 748.535156 531.714844 C 749 531.621094 749.464844 531.570312 749.941406 531.570312 C 750.414062 531.566406 750.882812 531.613281 751.34375 531.703125 C 751.808594 531.796875 752.261719 531.933594 752.695312 532.117188 C 753.132812 532.296875 753.546875 532.519531 753.941406 532.785156 C 754.332031 533.050781 754.691406 533.351562 755.023438 533.691406 C 755.355469 534.027344 755.652344 534.394531 755.910156 534.792969 C 756.164062 535.191406 756.382812 535.609375 756.554688 536.046875 C 756.730469 536.488281 756.859375 536.941406 756.941406 537.40625 C 757.023438 537.875 757.058594 538.34375 757.050781 538.816406 C 757.050781 540.007812 757.050781 541.191406 757.050781 542.371094 L 757.050781 545.265625 L 757.078125 548.667969 C 757.078125 550.449219 757.078125 552.214844 757.050781 553.980469 C 757.0625 555.003906 756.875 555.996094 756.488281 556.945312 C 756.101562 557.898438 755.546875 558.734375 754.824219 559.460938 C 754.164062 560.085938 753.414062 560.5625 752.570312 560.890625 C 751.726562 561.21875 750.851562 561.371094 749.945312 561.355469 L 749.785156 561.355469 C 749.308594 561.351562 748.839844 561.304688 748.375 561.203125 C 747.910156 561.105469 747.460938 560.960938 747.027344 560.769531 C 746.59375 560.582031 746.183594 560.347656 745.792969 560.074219 C 745.40625 559.796875 745.054688 559.488281 744.730469 559.140625 C 744.40625 558.792969 744.121094 558.414062 743.878906 558.007812 C 743.632812 557.601562 743.429688 557.175781 743.273438 556.726562 C 743.113281 556.28125 743.003906 555.820312 742.9375 555.351562 C 742.875 554.878906 742.859375 554.40625 742.894531 553.933594 Z M 694.207031 660.355469 C 694.484375 661.074219 694.628906 661.816406 694.644531 662.582031 C 694.660156 663.351562 694.542969 664.097656 694.296875 664.824219 C 694.050781 665.550781 693.691406 666.214844 693.210938 666.816406 C 692.734375 667.417969 692.167969 667.917969 691.515625 668.320312 C 686.308594 671.457031 681.539062 674.1875 676.890625 676.738281 C 675.925781 677.265625 674.894531 677.523438 673.796875 677.511719 C 673.167969 677.507812 672.550781 677.417969 671.945312 677.242188 C 671.339844 677.070312 670.769531 676.820312 670.230469 676.492188 C 669.695312 676.164062 669.210938 675.769531 668.78125 675.308594 C 668.351562 674.847656 667.992188 674.339844 667.699219 673.78125 C 667.480469 673.410156 667.296875 673.019531 667.152344 672.613281 C 667.003906 672.207031 666.898438 671.789062 666.832031 671.359375 C 666.769531 670.933594 666.742188 670.503906 666.761719 670.070312 C 666.777344 669.640625 666.832031 669.210938 666.933594 668.792969 C 667.03125 668.371094 667.167969 667.960938 667.34375 667.566406 C 667.519531 667.171875 667.730469 666.796875 667.980469 666.441406 C 668.226562 666.089844 668.507812 665.761719 668.816406 665.460938 C 669.128906 665.160156 669.464844 664.890625 669.828125 664.652344 C 673.855469 662.226562 677.953125 659.886719 682.074219 657.554688 L 684.542969 656.136719 C 685.238281 655.753906 685.980469 655.535156 686.769531 655.472656 L 687.476562 655.394531 L 687.667969 655.394531 C 688.40625 655.410156 689.125 655.535156 689.820312 655.777344 C 690.519531 656.019531 691.164062 656.367188 691.75 656.8125 C 692.339844 657.257812 692.84375 657.785156 693.261719 658.394531 C 693.683594 659 693.996094 659.660156 694.207031 660.367188 Z M 822.0625 676.265625 C 817.800781 673.816406 813.5625 671.363281 809.351562 668.910156 C 808.925781 668.691406 808.523438 668.433594 808.148438 668.132812 C 807.773438 667.835938 807.429688 667.5 807.121094 667.132812 C 806.8125 666.765625 806.542969 666.371094 806.3125 665.953125 C 806.082031 665.53125 805.894531 665.089844 805.75 664.632812 C 805.605469 664.175781 805.511719 663.707031 805.460938 663.230469 C 805.410156 662.75 805.40625 662.273438 805.453125 661.796875 C 805.496094 661.316406 805.589844 660.847656 805.726562 660.390625 C 805.867188 659.929688 806.046875 659.488281 806.273438 659.0625 C 806.714844 658.242188 807.300781 657.542969 808.027344 656.964844 C 808.757812 656.382812 809.570312 655.96875 810.472656 655.722656 C 811.480469 655.460938 812.5 655.40625 813.53125 655.5625 C 814.5625 655.71875 815.519531 656.074219 816.40625 656.625 C 820.820312 659.132812 825.210938 661.675781 829.597656 664.21875 C 830.285156 664.597656 830.890625 665.082031 831.410156 665.667969 C 831.933594 666.253906 832.34375 666.910156 832.640625 667.636719 C 832.941406 668.363281 833.109375 669.117188 833.152344 669.902344 C 833.191406 670.683594 833.101562 671.453125 832.882812 672.207031 C 832.6875 672.96875 832.378906 673.675781 831.949219 674.332031 C 831.515625 674.988281 830.992188 675.554688 830.371094 676.035156 C 829.75 676.515625 829.070312 676.878906 828.328125 677.132812 C 827.582031 677.382812 826.820312 677.503906 826.035156 677.5 L 825.601562 677.535156 L 824.160156 677.148438 C 823.433594 676.917969 822.734375 676.628906 822.0625 676.277344 Z M 806.289062 593.851562 C 805.691406 592.769531 805.390625 591.609375 805.390625 590.375 C 805.394531 589.746094 805.476562 589.128906 805.644531 588.523438 C 805.808594 587.917969 806.050781 587.34375 806.367188 586.800781 C 806.683594 586.257812 807.066406 585.765625 807.511719 585.324219 C 807.960938 584.882812 808.457031 584.503906 809 584.195312 C 813.40625 581.589844 817.824219 579.011719 822.253906 576.523438 C 822.527344 576.363281 822.804688 576.21875 823.09375 576.09375 C 823.382812 575.96875 823.679688 575.863281 823.984375 575.777344 C 824.285156 575.6875 824.59375 575.621094 824.902344 575.570312 C 825.214844 575.523438 825.527344 575.492188 825.84375 575.484375 C 826.15625 575.472656 826.472656 575.484375 826.785156 575.515625 C 827.097656 575.546875 827.410156 575.597656 827.714844 575.667969 C 828.023438 575.734375 828.324219 575.824219 828.621094 575.933594 C 828.917969 576.042969 829.203125 576.167969 829.484375 576.3125 C 829.761719 576.457031 830.03125 576.617188 830.292969 576.796875 C 830.550781 576.976562 830.800781 577.171875 831.035156 577.378906 C 831.269531 577.589844 831.488281 577.8125 831.695312 578.050781 C 831.902344 578.289062 832.09375 578.539062 832.265625 578.800781 C 832.441406 579.066406 832.597656 579.335938 832.738281 579.617188 C 832.878906 579.902344 833 580.191406 833.105469 580.488281 C 833.207031 580.785156 833.292969 581.089844 833.359375 581.394531 C 833.421875 581.703125 833.46875 582.015625 833.496094 582.328125 L 833.707031 583.808594 L 832.371094 585.613281 C 831.691406 586.820312 830.78125 587.8125 829.636719 588.59375 C 825.109375 591.375 820.425781 594.035156 816.015625 596.496094 C 814.898438 597.148438 813.695312 597.480469 812.402344 597.488281 C 811.777344 597.484375 811.164062 597.402344 810.558594 597.234375 C 809.957031 597.070312 809.386719 596.828125 808.847656 596.507812 C 808.3125 596.1875 807.824219 595.800781 807.390625 595.351562 C 806.957031 594.902344 806.589844 594.402344 806.289062 593.851562 Z M 764.746094 766.347656 C 765.699219 766.347656 766.644531 766.253906 767.578125 766.066406 C 768.511719 765.878906 769.417969 765.605469 770.300781 765.238281 C 771.179688 764.875 772.015625 764.425781 772.808594 763.898438 C 773.597656 763.367188 774.332031 762.765625 775.007812 762.09375 C 775.679688 761.421875 776.28125 760.6875 776.8125 759.894531 C 777.339844 759.105469 777.789062 758.269531 778.152344 757.386719 C 778.519531 756.507812 778.796875 755.601562 778.980469 754.667969 C 779.167969 753.734375 779.261719 752.789062 779.265625 751.835938 L 779.265625 749.054688 C 779.265625 748.101562 779.171875 747.15625 778.984375 746.21875 C 778.800781 745.285156 778.523438 744.375 778.160156 743.496094 C 777.796875 742.613281 777.347656 741.777344 776.820312 740.984375 C 776.289062 740.191406 775.6875 739.457031 775.015625 738.78125 C 774.339844 738.105469 773.605469 737.503906 772.8125 736.972656 C 772.023438 736.445312 771.183594 735.996094 770.304688 735.628906 C 769.421875 735.265625 768.515625 734.988281 767.582031 734.800781 C 766.644531 734.613281 765.699219 734.519531 764.746094 734.519531 L 735.632812 734.519531 C 734.679688 734.519531 733.738281 734.613281 732.804688 734.800781 C 731.867188 734.988281 730.960938 735.261719 730.082031 735.628906 C 729.199219 735.992188 728.363281 736.441406 727.574219 736.972656 C 726.78125 737.5 726.046875 738.101562 725.375 738.777344 C 724.699219 739.449219 724.097656 740.183594 723.570312 740.976562 C 723.039062 741.765625 722.589844 742.601562 722.226562 743.484375 C 721.859375 744.363281 721.585938 745.269531 721.398438 746.207031 C 721.210938 747.140625 721.117188 748.082031 721.117188 749.035156 L 721.117188 751.820312 C 721.117188 752.773438 721.210938 753.714844 721.398438 754.648438 C 721.585938 755.585938 721.863281 756.492188 722.226562 757.371094 C 722.59375 758.25 723.039062 759.085938 723.570312 759.878906 C 724.101562 760.671875 724.703125 761.402344 725.375 762.078125 C 726.050781 762.75 726.78125 763.351562 727.574219 763.882812 C 728.367188 764.410156 729.203125 764.859375 730.082031 765.222656 C 730.960938 765.589844 731.871094 765.863281 732.804688 766.050781 C 733.738281 766.238281 734.683594 766.332031 735.632812 766.332031 Z M 764.746094 753.734375 L 735.632812 753.734375 C 735.382812 753.734375 735.140625 753.6875 734.90625 753.589844 C 734.675781 753.496094 734.46875 753.355469 734.289062 753.179688 C 734.113281 753 733.972656 752.796875 733.878906 752.5625 C 733.78125 752.332031 733.730469 752.089844 733.730469 751.835938 L 733.730469 749.054688 C 733.730469 748.800781 733.777344 748.558594 733.875 748.324219 C 733.972656 748.089844 734.109375 747.886719 734.289062 747.707031 C 734.464844 747.527344 734.671875 747.390625 734.90625 747.292969 C 735.140625 747.199219 735.382812 747.148438 735.632812 747.148438 L 764.746094 747.148438 C 764.996094 747.152344 765.238281 747.203125 765.46875 747.300781 C 765.699219 747.398438 765.902344 747.535156 766.078125 747.714844 C 766.253906 747.890625 766.390625 748.097656 766.484375 748.328125 C 766.578125 748.5625 766.625 748.804688 766.625 749.054688 L 766.625 751.835938 C 766.625 752.085938 766.578125 752.328125 766.484375 752.558594 C 766.390625 752.792969 766.253906 752.996094 766.078125 753.175781 C 765.902344 753.351562 765.699219 753.488281 765.46875 753.585938 C 765.238281 753.683594 764.996094 753.734375 764.746094 753.734375 Z M 764.746094 753.734375 " fill-opacity="1" fill-rule="nonzero"/></g></svg>